<?xml version='1.0' encoding='utf-8'?>
<svg xmlns="http://www.w3.org/2000/svg" version="1.1" id="Layer_1" x="0px" y="0px" viewBox="0 0 500 500" style="enable-background:new 0 0 500 500;"> <style type="text/css"> .st0{fill:#892CC6;} .st1{fill:#FFFFFF;} .st2{fill:#1E4C4C;} .st3{fill:#1A7C7B;} .st4{fill:#E8D4B0;} .st5{fill:#DFE1E1;} .st6{fill:#B6BFC0;} .st7{fill:#916D4D;} .st8{fill:#A1A7A7;} .st9{fill:#94736A;} .st10{fill:#EFF0F0;} .st11{fill:#C5C9C9;} .st12{fill:#E2E4E4;} .st13{fill:#FEA511;} .st14{fill:#C8CBCB;} .st15{fill:#AED4A1;} .st16{fill:#CCE4C4;} .st17{fill:#4D5357;} </style> <rect class="st0" width="500" height="500"/> <g> <path class="st1" d="M378,341.4c11.7,11.7,30.7,11.7,42.4,0c11.7-11.7,11.7-30.7,0-42.4c-11.7-11.7-30.7-11.7-42.4,0 C366.3,310.7,366.3,329.7,378,341.4z"/> <path class="st2" d="M383.3,336.1c8.8,8.8,23,8.8,31.8,0c8.8-8.8,8.8-23,0-31.8c-8.8-8.8-23-8.8-31.8,0 C374.5,313,374.5,327.3,383.3,336.1z"/> <path class="st1" d="M370.8,343.9l5.2-5.2l5.6,5.6l-5.2,5.2c-1.5,1.5-4,1.5-5.6,0l0,0C369.3,347.9,369.3,345.4,370.8,343.9z"/> <path class="st3" d="M415.1,336.1c0.5-0.5,0.9-1,1.4-1.5c-8.8,7.4-22,6.9-30.3-1.4c-8.3-8.3-8.7-21.5-1.4-30.3 c-0.5,0.4-1,0.9-1.5,1.4c-8.8,8.8-8.8,23,0,31.8C392.1,344.8,406.3,344.8,415.1,336.1z"/> </g> <g> <path class="st1" d="M247.8,360.4l-0.2-4.7c0-0.2-0.2-0.4-0.4-0.4l-5.3,0.2l0.2,5.4l5.3-0.2C247.7,360.8,247.9,360.6,247.8,360.4z"/> <path class="st2" d="M243.3,355.3l0.2,5.6c0,1.4-1.1,2.6-2.5,2.7l-59.2,2l-0.4-10.7l59.2-2C242,352.7,243.2,353.9,243.3,355.3z"/> <rect x="175.9" y="359.5" transform="matrix(-3.383432e-02 -0.9994 0.9994 -3.383432e-02 -172.6327 553.4754)" class="st4" width="10.7" height="1.3"/> <rect x="221.5" y="343.6" transform="matrix(-3.394102e-02 -0.9994 0.9994 -3.394102e-02 -127.6835 594.0814)" class="st1" width="3.5" height="30.4"/> <g> <path class="st1" d="M130.7,361.1l0.1,1.5l8.8,1.2c0.1,0,0.3,0,0.4,0l-0.2-4.7L130.7,361.1z"/> <path class="st3" d="M172.8,355.1c-11.1,0.4-22.2,1.8-32.9,4l-0.2,0l0.2,4.7c10.9,1.5,22,2.1,33.2,1.8l9.9-0.3l-0.4-10.7 L172.8,355.1z"/> </g> </g> <rect x="145.6" y="145" transform="matrix(0.9923 0.1242 -0.1242 0.9923 31.8279 -25.8295)" class="st1" width="155" height="194.9"/> <g> <path class="st5" d="M269.4,202.3l-83.1-11c-1.5-0.2-2.8,0.8-3,2.3l0,0c-0.2,1.5,0.8,2.8,2.3,3l83.1,11c1.5,0.2,2.8-0.8,3-2.3v0 C271.9,203.8,270.9,202.5,269.4,202.3z"/> <path class="st6" d="M267,173l-69.9-9.3c-1.2-0.2-2.4,0.9-2.6,2.4l0,0c-0.2,1.5,0.6,2.8,1.9,3l69.9,9.3c1.2,0.2,2.4-0.9,2.6-2.4v0 C269.1,174.5,268.3,173.2,267,173z"/> <path class="st5" d="M265.2,234.3l-83.1-11c-1.5-0.2-2.8,0.8-3,2.3l0,0c-0.2,1.5,0.8,2.8,2.3,3l83.1,11c1.5,0.2,2.8-0.8,3-2.3l0,0 C267.7,235.9,266.6,234.5,265.2,234.3z"/> <path class="st5" d="M201.9,208.3l-17.6-2.3c-1.5-0.2-2.8,0.8-3,2.3l0,0c-0.2,1.5,0.8,2.8,2.3,3l17.6,2.3c1.5,0.2,2.8-0.8,3-2.3v0 C204.4,209.9,203.4,208.5,201.9,208.3z"/> <path class="st5" d="M214.1,212.7L214.1,212.7c-0.2,1.5,0.8,2.8,2.3,3L234,218c1.5,0.2,2.8-0.8,3-2.3l0,0c0.2-1.5-0.8-2.8-2.3-3 l-17.6-2.3C215.6,210.2,214.3,211.2,214.1,212.7z"/> <path class="st6" d="M184.1,263.9c-0.2,0-0.3,0-0.5,0c-1.1-0.2-1.9-1.2-2-2.3c0,0-0.2-2.3-0.3-5.2c-1.1,2.7-2.1,4.7-3.1,5.7 c-1,1-2.5,0.9-3.5,0c-1-0.9-1-2.5,0-3.5c0.8-0.8,2.5-5.4,3.5-7.8c2.2-5.7,2.9-7.4,5.3-7c0.7,0.1,2.2,0.6,2.3,3 c0.1,1.6,0.2,4.1,0.4,6.5c0.6-0.2,1.2-0.1,1.8,0.1l5.6,2.7c2.3-1.2,7-3.2,10.3-1.4l1.5,0.9c1.8,1.1,2.5,1.5,5.3,1.7 c1.4,0.1,2.4,1.3,2.3,2.7c-0.1,1.4-1.4,2.4-2.7,2.3c-3.7-0.3-5.1-1-7.4-2.4l-1.4-0.8c-1-0.6-4.3,0.6-6.5,2 c-0.7,0.5-1.6,0.5-2.4,0.1l-4.5-2.2l-1.7,3.5C185.9,263.3,185.1,263.9,184.1,263.9z"/> </g> <path id="paper_clip_9_" class="st2" d="M119.6,340.2l-0.1,0.2c-1.6,2.8-5.1,3.9-8,2.3L99.3,336c-0.3-0.2-0.4-0.6-0.3-0.9 c0.2-0.3,0.6-0.4,0.9-0.3l12.2,6.7c2.2,1.2,5,0.4,6.2-1.8l0.1-0.2c1.2-2.2,0.4-5-1.8-6.2l-16-8.8c-1.6-0.9-3.7-0.3-4.6,1.4 c-0.9,1.6-0.3,3.7,1.3,4.6l12.5,6.8c0.9,0.5,2,0.2,2.5-0.7l0.1-0.2c0.5-0.9,0.2-2-0.7-2.5l-8.2-4.5c-0.3-0.2-0.4-0.6-0.3-0.9 c0.2-0.3,0.6-0.4,0.9-0.3l8.2,4.5c1.5,0.8,2.1,2.8,1.3,4.3l-0.1,0.2c-0.8,1.5-2.8,2.1-4.3,1.3l-12.4-6.8c-2.3-1.3-3.1-4.1-1.9-6.4 c1.3-2.3,4.1-3.1,6.4-1.9l16,8.8C120.1,333.7,121.1,337.3,119.6,340.2z"/> <g> <polygon class="st7" points="100.5,279.7 99.6,171.6 95.5,171.6 96.4,279.8 100.5,279.7 "/> <path class="st7" d="M99.2,267.4c0,0,5.7,10.5,9.7,10.4c5.3-0.2,3.5-2.6,3.5-2.6s-9.6-9.5-12.1-12.9c-0.5-0.7-1.2,2.3-1.2,2.3 L99.2,267.4L99.2,267.4z"/> <path class="st7" d="M98.5,182.9c0,0,5.5-10.6,9.6-10.5c5.3,0.1,3.6,2.5,3.6,2.5s-9.5,9.7-11.9,13.1c-0.5,0.7-1.2-2.3-1.2-2.3 L98.5,182.9L98.5,182.9z"/> <g> <path class="st2" d="M90.8,163.8l6.7-0.1c1.8,5.6,14.4,5.8,14.4,5.8s17.4,2.5,17.6,23c0.2,23.9-22,27.4-25.7,28.3 c-3.2,0.8-3.5,3.7-3.5,4.4c0,0.8,0.3,3.6,3.5,4.4c3.7,0.8,26,4,26.2,27.8c0.2,19.7-17.3,22.1-17.3,22.1s-12.5,1.7-14.2,7.3 l-6.7,0.1c0,0-2.7-5.4-2.8-21c-0.1-15.6,2.1-24.7,2.1-24.7s2.3-11.5,2.3-15.9c-0.1-4.3-2.6-15.8-2.6-15.8s-2.4-9.1-2.5-24.7 C88.2,169.2,90.8,163.8,90.8,163.8L90.8,163.8z M92.5,248.1c0,0-1.7,7.6,0.3,19c2,11.4,9.7,10.7,14.7,9.7c5-1,20-2.2,19.3-21.3 c-0.5-7.1-5.4-18.4-20.1-21.8C94.7,231,92.5,248.1,92.5,248.1L92.5,248.1z M106.5,216.1c14.7-3.6,19.3-15,19.8-22.1 c0.4-19.1-14.6-20-19.6-20.9c-5-0.9-12.7-1.4-14.5,10c-1.8,11.4,0,19,0,19S94.6,219.1,106.5,216.1L106.5,216.1z"/> </g> <path class="st8" d="M96.1,238.2l0.3,36.7c1.2,1.2,2.7,1.9,4.1,2.2l-0.1-7.6c-0.8-1.2-1.2-2.1-1.2-2.1l0-2.9c0,0,0.7-3,1.2-2.3 l-0.2-27.8C98.5,235.3,97.1,236.7,96.1,238.2L96.1,238.2z"/> <path class="st8" d="M99.2,264.6l0,2.9c0,0,0.5,0.8,1.2,2.1c1.4,2.3,3.9,5.9,6.3,7.5c0.3-0.1,0.5-0.1,0.8-0.1 c1.3-0.2,3.1-0.5,5.2-1.1c-0.1-0.3-0.3-0.6-0.3-0.6s-9.6-9.5-12.1-12.9c0,0,0,0,0,0C99.9,261.6,99.2,264.6,99.2,264.6L99.2,264.6z"/> <path class="st9" d="M91.9,256.7c0,2.9,0.3,6.4,1,10.4c1.5,8.5,6.1,10.3,10.5,10.2c-0.9,0-1.9-0.1-2.8-0.3c-1.5-0.3-2.9-1-4.1-2.2 c-1.6-1.6-2.9-4-3.6-7.8C92.1,263.2,91.9,259.6,91.9,256.7c0-5.4,0.7-8.6,0.7-8.6s0.7-5.6,3.5-9.9c1-1.6,2.4-3,4.1-3.8 c1.1-0.6,2.4-0.9,3.9-0.9c-9.7,0.1-11.5,14.7-11.5,14.7S91.8,251.4,91.9,256.7L91.9,256.7z"/> <g> <path class="st10" d="M99.8,188.1l0.2,27.5c1.1,0.6,2.4,0.9,3.9,0.9c0.8,0,1.7-0.1,2.6-0.3c14.7-3.6,19.3-15,19.8-22.1l0,0 c0-0.4,0-0.7,0-1.1l0,0c0,0,0,0,0,0c-0.1-13.4-8.2-17.3-14.3-18.9c0,0,0,0,0,0.1c0,0.5-0.3,0.9-0.3,0.9S102.2,184.6,99.8,188.1 C99.8,188.1,99.8,188.1,99.8,188.1L99.8,188.1z M99.7,172.9l0.1,7.9c1.5-2.5,4.1-6.4,6.6-7.9c-1.2-0.2-2.5-0.4-3.9-0.4 C101.5,172.6,100.6,172.7,99.7,172.9L99.7,172.9z M91.3,193.4C91.3,193.4,91.3,193.4,91.3,193.4c0,5.4,0.8,8.6,0.8,8.6l0,0 c0,0,0.8,5.6,3.7,9.8l-0.3-36.7c-1.6,1.6-2.8,4-3.4,7.8l0,0c0,0.1,0,0.1,0,0.1C91.5,187.1,91.3,190.5,91.3,193.4 C91.3,193.4,91.3,193.4,91.3,193.4L91.3,193.4z"/> </g> <path class="st11" d="M95.6,175.2l0.3,36.7c1.1,1.6,2.4,2.9,4.1,3.8l-0.2-27.5c-0.5,0.7-1.2-2.3-1.2-2.3l0-2.9c0,0,0.5-0.9,1.2-2.1 l-0.1-7.9C98.2,173.3,96.8,174,95.6,175.2L95.6,175.2z"/> <path class="st11" d="M98.5,182.9l0,2.9c0,0,0.7,3,1.2,2.3c0,0,0,0,0,0c2.4-3.5,11.9-13.1,11.9-13.1s0.3-0.4,0.3-0.9c0,0,0,0,0-0.1 c-2.1-0.5-4-0.8-5.3-1c-0.1,0-0.2,0-0.4-0.1c-2.5,1.5-5.1,5.4-6.6,7.9C99,182.1,98.5,182.9,98.5,182.9L98.5,182.9z"/> <path class="st9" d="M126.3,192.9C126.3,192.9,126.3,192.9,126.3,192.9L126.3,192.9C126.3,192.9,126.3,192.9,126.3,192.9 L126.3,192.9z M126.3,194c0-0.4,0-0.7,0-1.1C126.3,193.2,126.3,193.6,126.3,194L126.3,194z M92.1,183L92.1,183 c0.6-3.8,1.8-6.2,3.4-7.8c1.2-1.2,2.6-1.9,4.1-2.3c0.9-0.2,1.8-0.3,2.7-0.3C98.1,172.6,93.5,174.5,92.1,183L92.1,183L92.1,183z M92.2,202L92.2,202c0,0,2,14.5,11.7,14.5c-1.5,0-2.7-0.3-3.9-0.9c-1.7-0.8-3.1-2.2-4.1-3.8C93,207.6,92.2,202,92.2,202L92.2,202 L92.2,202z M91.3,193.4c0-2.9,0.2-6.3,0.8-10.2C91.5,187.1,91.3,190.5,91.3,193.4L91.3,193.4z M91.3,193.4 C91.3,193.4,91.3,193.4,91.3,193.4C91.3,193.4,91.3,193.4,91.3,193.4L91.3,193.4L91.3,193.4z"/> <path class="st12" d="M111.5,214.4l-11.8-26.3l12.1-14.1c0,0,13.5,3,14.1,17.4C126.7,205.7,117.5,208.4,111.5,214.4z"/> <path class="st13" d="M92.1,165.7c0.4,0,0.8,0.7,0.8,1.6c0,0.9-0.4,1.6-0.8,1.6c-0.4,0-0.8-0.7-0.8-1.6 C91.3,166.4,91.7,165.7,92.1,165.7z"/> <path class="st13" d="M92,278.2c0.4,0,0.8,0.7,0.8,1.6c0,0.9-0.4,1.6-0.8,1.6c-0.4,0-0.8-0.7-0.8-1.6 C91.2,278.9,91.6,278.2,92,278.2z"/> <g> <path class="st14" d="M92.5,248.1c0,0-0.7,3.2-0.7,8.6c0,2.9,0.3,6.4,1,10.4c0.7,3.8,2,6.2,3.6,7.8l-0.3-36.7 C93.2,242.5,92.5,248.1,92.5,248.1z"/> <path class="st14" d="M100.5,269.5l0.1,7.6c0.9,0.2,1.8,0.3,2.8,0.3c1.2,0,2.4-0.2,3.4-0.3C104.4,275.4,101.9,271.8,100.5,269.5z"/> <path class="st10" d="M118.6,273.4c4.4-2.6,8.3-7.4,8.2-16.8c0-0.4,0-0.7,0-1.1c-0.3-4.7-2.6-11.1-8.2-16V273.4z"/> <path class="st10" d="M106.7,233.8c-0.9-0.2-1.8-0.3-2.6-0.3c-1.5,0-2.7,0.4-3.9,0.9l0.2,27.8c0,0,0,0,0,0 c2.5,3.4,12.1,12.9,12.1,12.9s0.2,0.2,0.3,0.6c1.9-0.5,3.9-1.2,5.8-2.3v-33.8C115.6,237.1,111.7,234.9,106.7,233.8z"/> </g> </g> <g> <path class="st15" d="M345,270.6c-3.3,0-6.3,1.1-8.7,3.1c-1.9,1.6-4.3,2.6-6.8,2.9c-2.5,0.3-5.5,0.5-9,0.5c-1.3,0-2.6,0-3.9,0 c-6,0-11-4.7-11.5-10.5l-0.1,17.4l-0.1,17.4c0.6-5.9,5.5-10.5,11.5-10.4c1.2,0,2.5,0,3.8,0c3.4,0,6.4,0.2,8.8,0.5 c2.6,0.3,4.9,1.3,6.9,3c2.8,2.4,6.6,3.8,10.7,3.2c6.1-0.8,11-5.7,11.7-11.8c0.1-0.6,0.1-1.2,0.1-1.8 C358.3,276.6,352.4,270.6,345,270.6z"/> <polygon class="st16" points="304.5,250.7 305.2,250.7 305.2,249.7 291.8,249.7 291.8,251.9 294.1,251.9 294.1,283.9 294.1,315.9 291.4,315.9 291.4,318.1 304.9,318.2 304.9,317 304.1,317 304.3,283.9 "/> <polygon class="st17" points="291.8,251.9 291.4,251.9 291.4,283.9 291.6,283.9 "/> <polygon class="st17" points="291.4,283.9 291.4,315.9 291.4,315.9 291.6,283.9 "/> <polygon class="st2" points="294.1,283.9 294.1,251.9 291.8,251.9 291.6,283.9 "/> <polygon class="st2" points="294.1,283.9 291.6,283.9 291.4,315.9 294.1,315.9 "/> <path class="st1" d="M305.2,266.5l0.1-15.8l-0.1,0l-0.1,14.7C305.1,265.8,305.2,266.1,305.2,266.5z"/> <path class="st1" d="M304.9,317L304.9,317l0.1-15.7c0,0.4-0.1,0.7-0.1,1.1L304.9,317z"/> <path class="st16" d="M304.3,283.9l-0.2,33.1l0.8,0l0.1-14.6c0-0.4,0-0.7,0.1-1.1l0.1-17.4H304.3z"/> <path class="st16" d="M304.3,283.9h0.8l0.1-17.4c0-0.4-0.1-0.7,0-1.1l0.1-14.7l-0.8,0L304.3,283.9z"/> </g> </svg>